# xmcd
#
# Track frame offsets: 
#        150
#        10297
#        23165
#        37007
#        51942
#        63475
#        74027
#        85907
#        98927
#        111537
#        132915
#        145882
#        159120
#        171425
#        184107
#        197702
#
# Disc length: 2846 seconds
#
# Revision: 3
# Processed by: cddbd v1.5.2PL0 Copyright (c) Steve Scherf et al.
# Submitted via: ExactAudioCopyFreeDBPlugin 1.0
#
DISCID=eb0b1c10
DTITLE=Various Artist - Hi Times:  The Hi Records R&B Years
DYEAR=2001
DGENRE=Rhythm and Blues
TTITLE0=Willie Mitchell - 20-75
TTITLE1=Otis Clay - Trying to Live My Life Without You
TTITLE2=Syl Johnson - Take Me to the River
TTITLE3=Al Green - You Ought to Be with Me
TTITLE4=Ann Peebles - I Can't Stand the Rain
TTITLE5=Willie Mitchell - Soul Serenade
TTITLE6=Syl Johnson - Back for a Taste of Your Love
TTITLE7=Otis Clay - If I Could Reach Out
TTITLE8=Ann Peebles - I'm Gonna Tear Your Playhouse Down
TTITLE9=Al Green - Let's Stay Together
TTITLE10=Quiet Elegance - You've Got My Mind Messed Up
TTITLE11=Ann Peebles - Come to Mama
TTITLE12=Al Green - Tired of Being Alone
TTITLE13=Syl Johnson - We Did It
TTITLE14=George Jackson - Aretha, Sing One for Me
TTITLE15=O.V. Wright - Precious, Precious
EXTD=YEAR: 2001
EXTT0=
EXTT1=
EXTT2=
EXTT3=
EXTT4=
EXTT5=
EXTT6=
EXTT7=
EXTT8=
EXTT9=
EXTT10=
EXTT11=
EXTT12=
EXTT13=
EXTT14=
EXTT15=
PLAYORDER=
